<?xml version="1.0" encoding="utf-8"?>
<!-- Generator: Adobe Illustrator 23.0.6, SVG Export Plug-In . SVG Version: 6.00 Build 0)  -->
<svg version="1.1" id="Layer_1" xmlns="http://www.w3.org/2000/svg" xmlns:xlink="http://www.w3.org/1999/xlink" x="0px" y="0px"
	 viewBox="0 0 24 24" style="enable-background:new 0 0 24 24;" xml:space="preserve">
<path d="M23.2,21.7l-2-13.9c0,0,0,0,0,0C21,6.7,20.1,6,19.1,6H5c-1,0-2,0.7-2.2,1.8l-2,14c0,0.6,0.2,1.1,0.5,1.5
	C1.7,23.7,2.2,24,2.8,24h18.4c1.1,0,2-0.9,2.1-2C23.2,21.9,23.2,21.9,23.2,21.7z M21.1,22.5H2.8c-0.2,0-0.3-0.1-0.4-0.2
	c-0.1-0.1-0.2-0.3-0.2-0.4L4.2,8c0-0.3,0.3-0.6,0.7-0.5h14.2c0.3,0,0.6,0.2,0.7,0.5l2,13.9C21.7,22.3,21.4,22.5,21.1,22.5z M7.6,3.6
	C8,1.5,9.8,0,12,0c2.2,0,4,1.6,4.4,3.7c0.1,0.4-0.2,0.8-0.6,0.9c0,0-0.1,0-0.1,0c-0.4,0-0.7-0.2-0.7-0.6c-0.3-1.4-1.5-2.4-3-2.5
	c-1.4,0-2.7,1-2.9,2.4C9,4.3,8.6,4.6,8.2,4.5C7.8,4.4,7.5,4.1,7.6,3.6z"/>
</svg>
