<?xml version="1.0" encoding="utf-8"?>
<!-- Generator: Adobe Illustrator 23.0.6, SVG Export Plug-In . SVG Version: 6.00 Build 0)  -->
<svg version="1.1" id="Layer_1" xmlns="http://www.w3.org/2000/svg" xmlns:xlink="http://www.w3.org/1999/xlink" x="0px" y="0px"
	 viewBox="0 0 16.5 16.5" style="enable-background:new 0 0 16.5 16.5;" xml:space="preserve">
<path d="M16.2,15.5l-4.4-4.4c0,0,0,0,0,0c1.6-1.8,2.1-4.5,1.1-6.9c-1.1-2.5-3.5-4-6.1-4C5.9,0.2,5,0.3,4.2,0.7
	C0.8,2.1-0.7,6,0.7,9.4c1.1,2.5,3.5,4,6.1,4c0.9,0,1.7-0.2,2.6-0.5c0.6-0.3,1.2-0.6,1.7-1.1c0,0,0,0,0,0l4.4,4.4
	c0.1,0.1,0.2,0.1,0.4,0.1s0.3,0,0.4-0.1C16.4,16,16.4,15.7,16.2,15.5z M1.6,9c-1.2-2.9,0.1-6.2,3-7.4c2.8-1.2,6.1,0.1,7.4,3
	c1.2,2.8-0.1,6.1-3,7.3C6.1,13.1,2.8,11.8,1.6,9z"/>
</svg>
