<?xml version="1.0" encoding="utf-8"?>
<!-- Generator: Adobe Illustrator 23.0.6, SVG Export Plug-In . SVG Version: 6.00 Build 0)  -->
<svg version="1.1" id="Layer_1" xmlns="http://www.w3.org/2000/svg" xmlns:xlink="http://www.w3.org/1999/xlink" x="0px" y="0px"
	 viewBox="0 0 24 24" style="enable-background:new 0 0 24 24;" xml:space="preserve">
<path d="M12,12c3.3,0,6-2.7,6-6s-2.7-6-6-6C8.7,0,6,2.7,6,6S8.7,12,12,12z M12,1.5c2.5,0,4.5,2,4.5,4.5s-2,4.5-4.5,4.5
	c-2.5,0-4.5-2-4.5-4.5S9.5,1.5,12,1.5z M22.5,23.2c0,0.4-0.3,0.8-0.8,0.8S21,23.7,21,23.2c0-5-4-9-9-9s-9,4-9,9
	C3,23.7,2.7,24,2.2,24s-0.8-0.3-0.8-0.8c0-5.8,4.7-10.5,10.5-10.5S22.5,17.5,22.5,23.2z"/>
</svg>
